HIERARCHY
ROOT Hips
{
	OFFSET 0.000000 0.000000 0.000000
	CHANNELS 6 Xposition Yposition Zposition Zrotation Yrotation Xrotation 
	JOINT LeftUpLeg_virtual
	{
		OFFSET 0.000000 0.000000 0.000000
		CHANNELS 3 Zrotation Yrotation Xrotation
		JOINT LeftUpLeg
		{
			OFFSET 10.205400 -3.823500 0.155100
			CHANNELS 3 Zrotation Yrotation Xrotation
			JOINT LeftLeg
			{
				OFFSET 0.708757 -12.982077 0.567790
				CHANNELS 3 Zrotation Yrotation Xrotation
				JOINT LeftFoot
				{
					OFFSET -0.708756 -10.717838 -2.184338
					CHANNELS 3 Zrotation Yrotation Xrotation
					JOINT LeftToeBase
					{
						OFFSET 0.108149 -7.191104 7.560241
						CHANNELS 3 Zrotation Yrotation Xrotation
						End Site
						{
							OFFSET 0.000000 0.000000 0.000000
						}
					}
				}
			}
		}
	}
	JOINT RightUpLeg_virtual
	{
		OFFSET 0.000000 0.000000 0.000000
		CHANNELS 3 Zrotation Yrotation Xrotation
		JOINT RightUpLeg
		{
			OFFSET -10.205400 -3.823500 0.005500
			CHANNELS 3 Zrotation Yrotation Xrotation
			JOINT RightLeg
			{
				OFFSET -0.708756 -12.982134 0.610632
				CHANNELS 3 Zrotation Yrotation Xrotation
				JOINT RightFoot
				{
					OFFSET 0.708754 -10.717769 -1.945823
					CHANNELS 3 Zrotation Yrotation Xrotation
					JOINT RightToeBase
					{
						OFFSET -0.108140 -7.191069 7.372968
						CHANNELS 3 Zrotation Yrotation Xrotation
						End Site
						{
							OFFSET 0.000000 0.000000 0.000000
						}
					}
				}
			}
		}
	}
	JOINT Spine_virtual
	{
		OFFSET 0.000000 0.000000 0.000000
		CHANNELS 3 Zrotation Yrotation Xrotation
		JOINT Spine
		{
			OFFSET 0.000000 6.876099 0.125700
			CHANNELS 3 Zrotation Yrotation Xrotation
			JOINT Spine1
			{
				OFFSET 0.000000 8.022060 0.146608
				CHANNELS 3 Zrotation Yrotation Xrotation
				JOINT Spine2
				{
					OFFSET 0.000000 9.168068 0.167552
					CHANNELS 3 Zrotation Yrotation Xrotation
					JOINT Neck_virtual
					{
						OFFSET 0.000000 0.000000 0.000000
						CHANNELS 3 Zrotation Yrotation Xrotation
						JOINT Neck
						{
							OFFSET 0.000000 10.314075 0.188496
							CHANNELS 3 Zrotation Yrotation Xrotation
							JOINT Head
							{
								OFFSET 0.000000 7.643700 -2.377400
								CHANNELS 3 Zrotation Yrotation Xrotation
								End Site
								{
									OFFSET 0.000000 0.000000 0.000000
								}
							}
						}
					}
					JOINT LeftShoulder_virtual
					{
						OFFSET 0.000000 0.000000 0.000000
						CHANNELS 3 Zrotation Yrotation Xrotation
						JOINT LeftShoulder
						{
							OFFSET 4.392200 8.824978 0.174984
							CHANNELS 3 Zrotation Yrotation Xrotation
							JOINT LeftArm
							{
								OFFSET 8.771219 -2.981674 -0.026999
								CHANNELS 3 Zrotation Yrotation Xrotation
								JOINT LeftForeArm
								{
									OFFSET 8.512804 0.000000 -0.000000
									CHANNELS 3 Zrotation Yrotation Xrotation
									JOINT LeftHand
									{
										OFFSET 18.484802 0.000000 -0.000000
										CHANNELS 3 Zrotation Yrotation Xrotation
										End Site
										{
											OFFSET 0.000000 0.000000 0.000000
										}
									}
								}
							}
						}
					}
					JOINT RightShoulder_virtual
					{
						OFFSET 0.000000 0.000000 0.000000
						CHANNELS 3 Zrotation Yrotation Xrotation
						JOINT RightShoulder
						{
							OFFSET -4.392200 8.824993 0.141379
							CHANNELS 3 Zrotation Yrotation Xrotation
							JOINT RightArm
							{
								OFFSET -8.771282 -2.981682 -0.094208
								CHANNELS 3 Zrotation Yrotation Xrotation
								JOINT RightForeArm
								{
									OFFSET -8.494598 0.000000 0.000000
									CHANNELS 3 Zrotation Yrotation Xrotation
									JOINT RightHand
									{
										OFFSET -18.483803 0.000000 0.000001
										CHANNELS 3 Zrotation Yrotation Xrotation
										End Site
										{
											OFFSET 0.000000 0.000000 0.000000
										}
									}
								}
							}
						}
					}
				}
			}
		}
	}
}
MOTION
Frames: 14
Frame Time: 0.033333
7.882921 34.754650 -40.491024 179.766426 -3.590227 -179.874507 0.437978 -2.129307 8.314653 -5.571672 -12.240496 -28.490599 11.416409 11.061561 20.089844 -3.849670 7.094328 5.904619 0.000000 0.000000 0.000000 5.803832 -0.378222 6.688777 3.550744 9.403483 -20.901572 -4.722269 1.850373 17.757493 11.052797 6.090506 8.505840 0.000000 0.000000 0.000000 2.379869 1.407317 -6.625452 -0.478649 -3.838882 -13.118164 -1.731320 -2.332337 12.387336 0.054849 0.052894 0.001302 -2.158058 0.001584 14.156658 -0.887968 -3.440831 19.095836 0.000000 0.000000 0.000000 -0.423089 0.731407 11.264444 -16.708028 -11.593765 1.979583 -49.817672 22.364404 17.010566 -0.851892 -32.958914 2.562777 0.000000 0.000000 0.000000 -4.608894 1.840797 10.598991 26.780397 7.035525 6.195479 47.827232 -15.666405 9.915556 -7.822934 28.398631 -4.421245 0.000000 0.000000 0.000000 
7.892641 34.758663 -40.461761 179.519365 -3.673899 -179.794116 0.476249 -2.345891 8.236355 -5.625892 -12.259624 -28.292179 11.691317 11.396756 20.295082 -3.640852 7.240525 6.078082 0.000000 0.000000 0.000000 6.140529 -0.171622 7.161334 3.747070 9.752190 -21.455023 -4.531336 1.866601 17.668648 11.314795 6.252452 8.919471 0.000000 0.000000 0.000000 2.270634 1.373055 -6.813431 -0.608932 -3.868184 -13.094125 -1.702847 -2.319926 12.359587 0.039746 0.066077 0.062611 -2.125418 -0.033937 14.196062 -0.912695 -3.441331 19.191944 0.000000 0.000000 0.000000 -0.395410 0.711576 11.245758 -16.700320 -11.593324 1.939226 -49.610720 22.454737 17.014387 -0.848878 -33.054776 2.600935 0.000000 0.000000 0.000000 -4.617890 1.736019 10.608359 26.799477 6.886312 6.154255 47.925815 -15.952752 8.753996 -7.863537 28.471801 -4.378497 0.000000 0.000000 0.000000 
7.906168 34.758167 -40.410137 179.522315 -3.648846 -179.801342 0.538904 -2.387248 8.084699 -5.719460 -12.215339 -28.193493 11.754702 11.340009 20.227482 -3.631408 7.226280 6.176060 0.000000 0.000000 0.000000 6.186914 -0.299742 6.722425 3.775250 9.855627 -21.022998 -4.551462 1.906210 17.552850 11.366746 6.235520 8.868138 0.000000 0.000000 0.000000 2.423797 1.337431 -6.944368 -0.666168 -3.943254 -13.017484 -1.800005 -2.325747 12.330762 0.034840 0.053478 0.076308 -2.058402 0.103223 14.113005 -0.966599 -3.445534 19.126236 0.000000 0.000000 0.000000 -0.325209 0.812221 11.218847 -16.641396 -11.608619 1.947858 -49.338667 22.633070 17.047514 -0.866807 -33.253548 2.636797 0.000000 0.000000 0.000000 -4.529943 1.830311 10.585031 26.936693 6.573123 6.127939 48.206376 -16.362507 6.790523 -7.978057 28.573176 -4.554990 0.000000 0.000000 0.000000 
7.920074 34.758801 -40.349911 179.525006 -3.510940 -179.799908 0.606364 -2.340934 7.964064 -5.843585 -12.081864 -28.133032 11.830122 11.274615 20.153699 -3.652013 7.217879 6.316563 0.000000 0.000000 0.000000 6.253419 -0.281517 6.423112 3.735038 9.999873 -20.788618 -4.579982 1.913742 17.497693 11.442370 6.203266 8.824962 0.000000 0.000000 0.000000 2.569944 1.133749 -7.024728 -0.679735 -3.924225 -12.931319 -1.786493 -2.210403 12.314892 0.052235 0.200924 0.064448 -2.162134 -0.019032 14.091946 -0.996603 -3.459008 19.044616 0.000000 0.000000 0.000000 -0.374774 0.672211 11.098660 -16.536339 -11.512835 1.976841 -48.990246 22.785687 17.166133 -0.994577 -33.459389 2.786720 0.000000 0.000000 0.000000 -4.541626 1.805928 10.589749 27.137656 6.397728 6.146572 48.522087 -16.799197 4.992809 -8.008786 28.684821 -4.707951 0.000000 0.000000 0.000000 
7.938224 34.758808 -40.285145 179.530266 -3.408728 -179.797271 0.664934 -2.335221 7.851285 -6.002126 -11.937238 -28.142621 11.943698 11.015426 20.127502 -3.662824 7.251065 6.517733 0.000000 0.000000 0.000000 6.305164 -0.244132 6.341428 3.658791 10.132047 -20.773479 -4.622608 1.771625 17.375274 11.574796 6.158906 8.873422 0.000000 0.000000 0.000000 2.556714 1.368044 -7.055617 -0.656062 -3.995408 -12.803863 -1.776074 -2.312422 12.268784 0.026016 0.052544 0.074642 -2.171572 -0.032194 14.004870 -0.997175 -3.433592 18.871652 0.000000 0.000000 0.000000 -0.406819 0.790118 11.148847 -16.461079 -11.630335 1.974483 -48.574635 22.794949 17.439365 -1.070388 -33.722604 2.855271 0.000000 0.000000 0.000000 -4.569566 1.819316 10.585171 27.410562 6.386737 6.167620 48.697080 -17.080259 3.795613 -8.159514 28.676665 -4.941036 0.000000 0.000000 0.000000 
7.962284 34.756748 -40.222584 179.536358 -3.222030 -179.815221 0.700804 -2.307178 7.788725 -6.169814 -11.745766 -28.171914 12.090242 10.632476 20.208996 -3.662578 7.311726 6.619903 0.000000 0.000000 0.000000 6.354725 -0.123003 6.334849 3.597817 10.235811 -20.786757 -4.659380 1.588853 17.217433 11.769792 6.114449 9.055073 0.000000 0.000000 0.000000 2.662148 1.259482 -7.006278 -0.661734 -3.826776 -12.663031 -1.803185 -2.157631 12.218471 0.046689 0.052890 0.104449 -2.192557 -0.020875 13.868101 -1.048847 -3.466196 18.694047 0.000000 0.000000 0.000000 -0.434484 0.630742 11.048728 -16.389520 -11.643874 2.017357 -48.250522 22.688160 17.803617 -1.156187 -33.882038 2.925126 0.000000 0.000000 0.000000 -4.592328 1.689717 10.546196 27.525461 6.630114 6.270522 48.509274 -17.235081 3.803815 -8.052962 28.657455 -4.895910 0.000000 0.000000 0.000000 
7.995238 34.755932 -40.167492 179.527889 -3.062623 -179.818322 0.707218 -2.366733 7.719230 -6.326132 -11.557329 -28.243300 12.247711 10.141794 20.337460 -3.630305 7.417731 6.754823 0.000000 0.000000 0.000000 6.375392 -0.061732 6.480856 3.556553 10.255776 -21.017074 -4.692111 1.412391 17.032060 12.002280 6.076264 9.340655 0.000000 0.000000 0.000000 2.596720 1.443980 -7.002324 -0.614583 -3.856058 -12.525394 -1.801660 -2.291252 12.125051 0.043737 0.067751 0.055237 -2.180058 -0.014589 13.875867 -1.052504 -3.442160 18.586261 0.000000 0.000000 0.000000 -0.543228 0.684724 11.044484 -16.314696 -11.736142 2.053519 -47.994629 22.457732 18.215973 -1.315319 -33.948608 3.030452 0.000000 0.000000 0.000000 -4.612476 1.793841 10.506479 27.594239 6.827046 6.381914 48.021715 -17.303745 4.594962 -7.981769 28.527277 -4.856494 0.000000 0.000000 0.000000 
8.031260 34.757782 -40.111034 179.509871 -2.774039 -179.802093 0.690945 -2.375290 7.645239 -6.437004 -11.342249 -28.326290 12.380040 9.607070 20.441619 -3.537780 7.595363 6.864851 0.000000 0.000000 0.000000 6.386247 0.009509 6.543623 3.584065 10.189707 -21.255226 -4.717172 1.409497 16.919809 12.226092 6.045602 9.669241 0.000000 0.000000 0.000000 2.620133 1.279336 -7.049595 -0.600051 -3.726761 -12.347128 -1.837201 -2.218940 12.059056 0.045211 0.130613 0.038325 -2.219056 -0.022908 13.797573 -1.099806 -3.433289 18.466759 0.000000 0.000000 0.000000 -0.504734 0.645856 10.989096 -16.382839 -11.768080 2.125438 -48.032571 22.217542 18.472125 -1.281247 -33.864037 2.936105 0.000000 0.000000 0.000000 -4.639482 1.823553 10.400028 27.574684 7.072201 6.444929 47.185675 -17.263301 5.853732 -7.879650 28.445723 -4.770231 0.000000 0.000000 0.000000 
8.071293 34.761326 -40.045322 179.481594 -2.522724 -179.829838 0.635275 -2.381129 7.572754 -6.450361 -11.193239 -28.397691 12.511068 9.099640 20.659125 -3.507030 7.770711 6.867602 0.000000 0.000000 0.000000 6.368054 0.074903 6.497943 3.715762 10.059389 -21.380092 -4.749349 1.551127 16.913275 12.378330 6.031790 9.925220 0.000000 0.000000 0.000000 2.536383 1.295705 -7.082424 -0.576940 -3.648275 -12.159667 -1.829427 -2.268445 11.972642 -0.001380 0.122425 0.022392 -2.154011 -0.133596 13.698887 -1.143773 -3.354186 18.473980 0.000000 0.000000 0.000000 -0.452635 0.665978 10.882347 -16.397138 -11.843236 2.151193 -48.108024 22.076614 18.503010 -1.419418 -33.770661 2.978890 0.000000 0.000000 0.000000 -4.578097 1.852592 10.323877 27.485588 7.273126 6.469944 46.281218 -17.280162 7.218825 -7.746095 28.441179 -4.696987 0.000000 0.000000 0.000000 
8.105098 34.755898 -39.970154 179.451882 -2.286703 -179.773666 0.552213 -2.322444 7.456425 -6.384803 -11.106086 -28.562094 12.611216 8.778709 20.924233 -3.550721 7.954564 6.850429 0.000000 0.000000 0.000000 6.321410 0.206116 6.468835 3.918694 9.833922 -21.691730 -4.803661 1.901590 17.122381 12.427335 6.023698 10.056532 0.000000 0.000000 0.000000 2.423463 1.451724 -7.202379 -0.538855 -3.656862 -12.025589 -1.779472 -2.345673 11.964720 0.031537 0.041052 0.004511 -2.169472 -0.030814 13.577596 -1.263046 -3.204873 18.497501 0.000000 0.000000 0.000000 -0.477852 0.759406 10.772913 -16.398272 -11.951141 2.114803 -48.213008 21.945072 18.500858 -1.609605 -33.602577 3.019748 0.000000 0.000000 0.000000 -4.605078 1.884726 10.270235 27.376337 7.449489 6.388260 45.566347 -17.339654 8.537684 -7.617459 28.443908 -4.643474 0.000000 0.000000 0.000000 
8.125213 34.747448 -39.880844 179.444752 -2.199268 -179.762943 0.415492 -2.160324 7.364061 -6.300406 -11.067340 -28.793834 12.644730 8.551105 21.237568 -3.688615 8.159540 6.851370 0.000000 0.000000 0.000000 6.233812 0.366170 6.298066 4.205184 9.543309 -21.795532 -4.900877 2.295801 17.369391 12.363890 6.000655 10.072625 0.000000 0.000000 0.000000 2.379910 1.549280 -7.214172 -0.555741 -3.599359 -11.934267 -1.747646 -2.318049 11.877675 0.059614 0.062125 0.055870 -2.088728 -0.079308 13.432419 -1.437399 -2.951557 18.624246 0.000000 0.000000 0.000000 -0.448229 0.700627 10.670663 -16.407866 -12.206230 2.246418 -48.240861 21.773048 18.690014 -1.457215 -33.510530 2.669114 0.000000 0.000000 0.000000 -4.609267 1.761180 10.112659 27.319495 7.429905 6.293233 45.148455 -17.438988 9.668817 -7.496085 28.668934 -4.576806 0.000000 0.000000 0.000000 
8.141946 34.734337 -39.784798 179.439670 -2.449586 -179.769800 0.307189 -1.923791 7.250905 -6.139967 -11.016246 -29.127909 12.614920 8.213454 21.547978 -3.992481 8.332745 6.863941 0.000000 0.000000 0.000000 6.110240 0.519092 6.036184 4.539063 9.208594 -21.689459 -5.049861 2.552521 17.576568 12.190895 5.942989 9.996114 0.000000 0.000000 0.000000 2.279226 1.756765 -7.160300 -0.625249 -3.622575 -11.946161 -1.610874 -2.374196 11.826170 0.042227 0.032942 0.039152 -2.064755 -0.136701 13.484702 -1.816467 -2.682560 18.930675 0.000000 0.000000 0.000000 -0.380614 0.624109 10.632511 -16.263509 -12.442463 2.279172 -48.108943 21.635615 19.079587 -1.483364 -33.588415 2.722594 0.000000 0.000000 0.000000 -4.570056 1.700946 10.089716 27.354617 7.352443 6.148225 45.109967 -17.644120 10.476391 -7.356370 28.922976 -4.511241 0.000000 0.000000 0.000000 
8.150438 34.720474 -39.698807 179.476116 -3.051649 -179.880955 0.186989 -1.509921 7.171372 -5.857153 -11.000855 -29.599250 12.500731 8.635288 21.758560 -4.746347 8.203361 6.958458 0.000000 0.000000 0.000000 5.965860 0.686007 6.006714 4.836270 8.761003 -21.649989 -5.250715 2.757111 17.771751 11.906685 5.804651 9.904616 0.000000 0.000000 0.000000 2.225079 1.860507 -7.020025 -0.641697 -3.667424 -11.952645 -1.617342 -2.393348 11.790798 0.032202 0.022880 -0.076922 -2.007343 -0.137125 13.532577 -2.264925 -2.257493 19.241848 0.000000 0.000000 0.000000 -0.282896 0.651285 10.609113 -16.026390 -12.605655 2.376261 -47.892060 21.472037 19.727355 -1.381734 -33.815109 2.583441 0.000000 0.000000 0.000000 -4.461650 1.751556 10.175232 27.421843 7.268054 5.910588 45.393017 -18.010872 10.860101 -7.310959 29.154796 -4.535527 0.000000 0.000000 0.000000 
8.142474 34.715363 -39.641773 179.545825 -4.187851 -179.886692 0.018156 -1.197516 7.135188 -5.470763 -10.722226 -30.235270 12.204313 9.490240 21.895935 -5.864977 7.880057 7.495816 0.000000 0.000000 0.000000 5.884910 0.778257 6.115631 5.073636 8.262440 -21.704413 -5.453533 2.658386 17.823483 11.581158 5.628148 9.846684 0.000000 0.000000 0.000000 2.304341 1.862613 -6.917623 -0.773041 -3.670737 -12.094359 -1.587027 -2.177741 11.761704 0.057458 0.004969 -0.022843 -1.985345 -0.144355 13.392118 -2.948318 -1.824859 19.683693 0.000000 0.000000 0.000000 -0.209357 0.618102 10.539214 -15.655987 -12.926898 2.315153 -47.785591 21.448985 20.147801 -1.456217 -34.102851 2.602038 0.000000 0.000000 0.000000 -4.458037 1.660791 10.032054 27.506043 6.964422 5.657971 45.940860 -18.579590 10.763956 -7.162597 29.427727 -4.505474 0.000000 0.000000 0.000000 
